<svg width="16" height="14" viewBox="0 0 16 14" fill="none" xmlns="http://www.w3.org/2000/svg">
<path fill-rule="evenodd" clip-rule="evenodd" d="M1.59168 1.71196L2.38083 6.24955H7.25001C7.66422 6.24955 8.00001 6.58533 8.00001 6.99955C8.00001 7.41376 7.66422 7.74955 7.25001 7.74955H2.38083L1.59168 12.2871L13.9294 6.99955L1.59168 1.71196ZM0.988747 6.99955L0.0636748 1.68038C-0.0111098 1.25037 0.128032 0.810863 0.436661 0.502233C0.824446 0.114453 1.40926 0.0018234 1.91333 0.217853L15.3157 5.96171C15.7308 6.13964 16 6.54786 16 6.99955C16 7.45123 15.7308 7.85946 15.3157 8.03739L1.91333 13.7812C1.40926 13.9973 0.824446 13.8846 0.436661 13.4969C0.128032 13.1882 -0.01111 12.7487 0.0636748 12.3187L0.988747 6.99955Z" fill="#0067DF"/>
</svg>
