<svg width="24" height="24" viewBox="0 0 24 24" fill="none" xmlns="http://www.w3.org/2000/svg">
<path d="M10.6667 13.3333C11.0444 13.3333 11.3613 13.2053 11.6173 12.9493C11.8724 12.6942 12 12.3778 12 12C12 11.6222 11.8724 11.3053 11.6173 11.0493C11.3613 10.7942 11.0444 10.6667 10.6667 10.6667C10.2889 10.6667 9.97244 10.7942 9.71733 11.0493C9.46133 11.3053 9.33333 11.6222 9.33333 12C9.33333 12.3778 9.46133 12.6942 9.71733 12.9493C9.97244 13.2053 10.2889 13.3333 10.6667 13.3333ZM5.33333 24V21.3333L13.3333 20V5.16667C13.3333 4.83333 13.2333 4.53333 13.0333 4.26667C12.8333 4 12.5778 3.84444 12.2667 3.8L5.33333 2.66667V0L12.6667 1.2C13.6444 1.37778 14.4444 1.83333 15.0667 2.56667C15.6889 3.3 16 4.15556 16 5.13333V22.2L5.33333 24ZM0 24V21.3333H2.66667V2.66667C2.66667 1.91111 2.928 1.27778 3.45067 0.766667C3.97244 0.255556 4.6 0 5.33333 0H18.6667C19.4222 0 20.0556 0.255556 20.5667 0.766667C21.0778 1.27778 21.3333 1.91111 21.3333 2.66667V21.3333H24V24H0ZM5.33333 21.3333H18.6667V2.66667H5.33333V21.3333Z" fill="#D8DCE4"/>
</svg>
