<svg width="25" height="24" viewBox="0 0 25 24" fill="none" xmlns="http://www.w3.org/2000/svg">
<path d="M23.7983 9.98319L20.874 9.68067C20.6723 8.97479 20.3697 8.26891 20.0672 7.66387L21.8824 5.34454C22.084 5.14286 21.9832 4.84034 21.8824 4.63866L19.6639 2.42017C19.4622 2.21849 19.1597 2.21849 18.958 2.42017L16.6387 4.23529C16.0336 3.83193 15.3277 3.63025 14.6218 3.42857L14.3193 0.504202C14.1176 0.201681 13.916 0 13.7143 0H10.5882C10.2857 0 10.084 0.201681 10.084 0.403361L9.78151 3.32773C9.07563 3.52941 8.36975 3.83193 7.76471 4.13445L5.34454 2.42017C5.14286 2.21849 4.84034 2.31933 4.63866 2.42017L2.42017 4.63866C2.21849 4.84034 2.21849 5.14286 2.42017 5.34454L4.23529 7.66387C3.83193 8.26891 3.63025 8.97479 3.42857 9.68067L0.504202 9.98319C0.201681 10.084 0 10.2857 0 10.4874V13.6134C0 13.916 0.201681 14.1176 0.403361 14.1176L3.32773 14.4202C3.52941 15.1261 3.83193 15.8319 4.13445 16.437L2.31933 18.7563C2.11765 18.958 2.21849 19.2605 2.31933 19.4622L4.53782 21.6807C4.7395 21.8824 5.04202 21.8824 5.2437 21.6807L7.56303 19.8655C8.16807 20.2689 8.87395 20.4706 9.57983 20.6723L9.88235 23.5966C9.88235 23.8992 10.084 24 10.3866 24H13.5126C13.8151 24 14.0168 23.7983 14.0168 23.5966L14.3193 20.6723C15.0252 20.4706 15.7311 20.1681 16.3361 19.8655L18.6555 21.6807C18.8571 21.8824 19.1597 21.7815 19.3613 21.6807L21.5798 19.4622C21.7815 19.2605 21.7815 18.958 21.5798 18.7563L19.7647 16.437C20.1681 15.8319 20.3697 15.1261 20.5714 14.4202L23.4958 14.1176C23.7983 14.1176 23.8992 13.916 23.8992 13.6134V10.4874C24.2017 10.2857 24 10.084 23.7983 9.98319ZM12.1008 16.1345C9.88235 16.1345 8.06723 14.3193 8.06723 12.1008C8.06723 9.88235 9.88235 8.06723 12.1008 8.06723C14.3193 8.06723 16.1345 9.88235 16.1345 12.1008C16.1345 14.3193 14.3193 16.1345 12.1008 16.1345Z" fill="#D8DCE4"/>
</svg>
