<svg width="16" height="14" viewBox="0 0 16 14" fill="none" xmlns="http://www.w3.org/2000/svg">
<path fill-rule="evenodd" clip-rule="evenodd" d="M1.54786 1.60259L2.33701 6.14018H7.20619C7.6204 6.14018 7.95619 6.47596 7.95619 6.89018C7.95619 7.30439 7.6204 7.64018 7.20619 7.64018H2.33701L1.54786 12.1777L13.8856 6.89018L1.54786 1.60259ZM0.944924 6.89018L0.0198515 1.57101C-0.0549331 1.141 0.0842088 0.701488 0.392838 0.392858C0.780623 0.00507835 1.36544 -0.107552 1.86951 0.108478L15.2719 5.85234C15.687 6.03027 15.9562 6.43849 15.9562 6.89018C15.9562 7.34186 15.687 7.75009 15.2719 7.92802L1.86951 13.6718C1.36544 13.8879 0.780623 13.7752 0.392838 13.3875C0.0842088 13.0788 -0.0549333 12.6393 0.0198515 12.2093L0.944924 6.89018Z" fill="#D8DCE4"/>
</svg>
