<svg width="24" height="24" viewBox="0 0 24 24" fill="none" xmlns="http://www.w3.org/2000/svg">
<path d="M0 24V21.3333H2.66667V2.66667C2.66667 1.93333 2.928 1.30533 3.45067 0.782667C3.97244 0.260889 4.6 0 5.33333 0H18.6667C19.4 0 20.028 0.260889 20.5507 0.782667C21.0724 1.30533 21.3333 1.93333 21.3333 2.66667V21.3333H24V24H0ZM18.6667 21.3333V2.66667H5.33333V21.3333H18.6667ZM14.6667 13.3333C15.0444 13.3333 15.3613 13.2053 15.6173 12.9493C15.8724 12.6942 16 12.3778 16 12C16 11.6222 15.8724 11.3053 15.6173 11.0493C15.3613 10.7942 15.0444 10.6667 14.6667 10.6667C14.2889 10.6667 13.9724 10.7942 13.7173 11.0493C13.4613 11.3053 13.3333 11.6222 13.3333 12C13.3333 12.3778 13.4613 12.6942 13.7173 12.9493C13.9724 13.2053 14.2889 13.3333 14.6667 13.3333Z" fill="#0D1321"/>
</svg>
