<svg width="24" height="24" viewBox="0 0 24 24" fill="none" xmlns="http://www.w3.org/2000/svg">
<path d="M23.7455 9.98319L20.8276 9.68067C20.6264 8.97479 20.3245 8.26891 20.0227 7.66387L21.8337 5.34454C22.035 5.14286 21.9344 4.84034 21.8337 4.63866L19.6202 2.42017C19.419 2.21849 19.1171 2.21849 18.9159 2.42017L16.6017 4.23529C15.998 3.83193 15.2937 3.63025 14.5894 3.42857L14.2875 0.504202C14.0863 0.201681 13.8851 0 13.6838 0H10.5647C10.2629 0 10.0616 0.201681 10.0616 0.403361L9.75979 3.32773C9.05547 3.52941 8.35116 3.83193 7.74746 4.13445L5.33267 2.42017C5.13143 2.21849 4.82958 2.31933 4.62835 2.42017L2.41479 4.63866C2.21356 4.84034 2.21356 5.14286 2.41479 5.34454L4.22589 7.66387C3.82342 8.26891 3.62219 8.97479 3.42096 9.68067L0.503082 9.98319C0.201233 10.084 0 10.2857 0 10.4874V13.6134C0 13.916 0.201233 14.1176 0.402465 14.1176L3.32034 14.4202C3.52157 15.1261 3.82342 15.8319 4.12527 16.437L2.31418 18.7563C2.11294 18.958 2.21356 19.2605 2.31418 19.4622L4.52774 21.6807C4.72897 21.8824 5.03082 21.8824 5.23205 21.6807L7.54623 19.8655C8.14992 20.2689 8.85424 20.4706 9.55855 20.6723L9.8604 23.5966C9.8604 23.8992 10.0616 24 10.3635 24H13.4826C13.7844 24 13.9857 23.7983 13.9857 23.5966L14.2875 20.6723C14.9918 20.4706 15.6962 20.1681 16.2998 19.8655L18.614 21.6807C18.8153 21.8824 19.1171 21.7815 19.3183 21.6807L21.5319 19.4622C21.7331 19.2605 21.7331 18.958 21.5319 18.7563L19.7208 16.437C20.1233 15.8319 20.3245 15.1261 20.5257 14.4202L23.4436 14.1176C23.7455 14.1176 23.8461 13.916 23.8461 13.6134V10.4874C24.1479 10.2857 23.9467 10.084 23.7455 9.98319ZM12.074 16.1345C9.8604 16.1345 8.04931 14.3193 8.04931 12.1008C8.04931 9.88235 9.8604 8.06723 12.074 8.06723C14.2875 8.06723 16.0986 9.88235 16.0986 12.1008C16.0986 14.3193 14.2875 16.1345 12.074 16.1345Z" fill="#0D1321"/>
</svg>
