<svg width="30" height="16" viewBox="0 0 30 16" fill="none" xmlns="http://www.w3.org/2000/svg">
<path d="M12.36 8H16.9734C18.2134 8 19.1467 6.89333 18.9467 5.66667L18.5467 3.28C18.2267 1.38667 16.5867 0 14.6667 0C12.7467 0 11.1067 1.38667 10.7867 3.29333L10.3867 5.68C10.1867 6.89333 11.12 8 12.36 8ZM13.4134 3.72C13.52 3.10667 14.04 2.66667 14.6667 2.66667C15.2934 2.66667 15.8134 3.10667 15.92 3.72L16.1867 5.33333H13.1467L13.4134 3.72Z" fill="black"/>
<path d="M2.21336 6.81366C2.04003 7.16032 1.97336 7.57366 2.08003 7.98699C2.29336 8.90699 3.09336 9.36032 4.12003 9.32032C4.12003 9.32032 6.1067 9.32032 6.72003 9.32032C7.8267 9.32032 8.73336 8.54699 8.73336 7.60032C8.73336 7.41366 8.69336 7.24033 8.64003 7.06699C8.6267 7.02699 8.6267 7.00033 8.65336 6.96033C8.77336 6.74699 8.84003 6.50699 8.84003 6.25366C8.84003 5.84032 8.65336 5.45366 8.36003 5.16032C8.32003 5.12033 8.32003 5.08033 8.33336 5.02699C8.4267 4.76033 8.4267 4.45366 8.3467 4.16033C8.13336 3.58699 7.61336 3.20033 7.0267 3.17366C6.9867 3.17366 6.96003 3.16033 6.93336 3.13366C6.7067 2.85366 6.29336 2.66699 5.8267 2.66699C5.4267 2.66699 5.0667 2.80033 4.8267 3.01366C4.7867 3.05366 4.7467 3.05366 4.7067 3.04033C4.52003 2.96033 4.3067 2.92032 4.09336 2.92032C3.2267 2.92032 2.52003 3.57366 2.44003 4.41366C2.44003 4.44033 2.4267 4.46699 2.40003 4.49366C2.01336 4.84033 1.7867 5.36033 1.85336 5.89366C1.89336 6.18699 2.01336 6.46699 2.1867 6.69366C2.2267 6.72033 2.2267 6.77366 2.21336 6.81366Z" fill="black"/>
<path d="M20.32 10.2C18.76 9.50667 16.84 9 14.6667 9C12.4934 9 10.5734 9.52 9.01335 10.2C7.57335 10.84 6.66669 12.28 6.66669 13.8533V16H22.6667V13.8533C22.6667 12.28 21.76 10.84 20.32 10.2ZM9.42669 13.3333C9.54669 13.0267 9.78669 12.7733 10.08 12.64C11.5467 11.9867 13.0934 11.6667 14.6534 11.6667C16.2267 11.6667 17.76 12 19.2267 12.64C19.5334 12.7733 19.76 13.0267 19.88 13.3333H9.42669Z" fill="black"/>
<path d="M1.62667 11.4403C0.64 11.867 0 12.827 0 13.907V16.0003H6V13.8537C6 12.747 6.30667 11.707 6.84 10.8003C6.34667 10.7203 5.85333 10.667 5.33333 10.667C4.01333 10.667 2.76 10.947 1.62667 11.4403Z" fill="black"/>
<path d="M27.7068 11.4403C26.5735 10.947 25.3201 10.667 24.0001 10.667C23.4801 10.667 22.9868 10.7203 22.4935 10.8003C23.0268 11.707 23.3335 12.747 23.3335 13.8537V16.0003H29.3335V13.907C29.3335 12.827 28.6935 11.867 27.7068 11.4403Z" fill="black"/>
<path d="M26.6665 6.66634V5.99967C26.6665 4.53301 25.4665 3.33301 23.9999 3.33301H21.3332C20.7732 3.33301 20.4665 3.97301 20.8132 4.41301L21.7465 5.25301C21.4932 5.66634 21.3332 6.14634 21.3332 6.66634C21.3332 8.13301 22.5332 9.33301 23.9999 9.33301C25.4665 9.33301 26.6665 8.13301 26.6665 6.66634Z" fill="black"/>
</svg>
