<svg width="16" height="16" viewBox="0 0 16 16" fill="none" xmlns="http://www.w3.org/2000/svg">
<g clip-path="url(#clip0_246_349)">
<path fill-rule="evenodd" clip-rule="evenodd" d="M1.59168 2.71196L2.38083 7.24955H7.25001C7.66422 7.24955 8.00001 7.58533 8.00001 7.99955C8.00001 8.41376 7.66422 8.74955 7.25001 8.74955H2.38083L1.59168 13.2871L13.9294 7.99955L1.59168 2.71196ZM0.988747 7.99955L0.0636748 2.68038C-0.0111098 2.25037 0.128032 1.81086 0.436661 1.50223C0.824446 1.11445 1.40926 1.00182 1.91333 1.21785L15.3157 6.96171C15.7308 7.13964 16 7.54786 16 7.99955C16 8.45123 15.7308 8.85946 15.3157 9.03739L1.91333 14.7812C1.40926 14.9973 0.824446 14.8846 0.436661 14.4969C0.128032 14.1882 -0.01111 13.7487 0.0636748 13.3187L0.988747 7.99955Z" fill="#0D1321"/>
</g>
<defs>
<clipPath id="clip0_246_349">
<rect width="16" height="16" fill="white"/>
</clipPath>
</defs>
</svg>
